<svg xmlns="http://www.w3.org/2000/svg" xmlns:xlink="http://www.w3.org/1999/xlink" width="500" zoomAndPan="magnify" viewBox="0 0 375 225" height="300" preserveAspectRatio="xMidYMid meet" version="1.0"><defs><clipPath id="76f74c9977"><path d="M 342.667969 29.675781 L 372.78125 29.675781 L 372.78125 59.785156 L 342.667969 59.785156 Z M 342.667969 29.675781 " clip-rule="nonzero"/></clipPath><clipPath id="4cef386973"><path d="M 357.722656 29.675781 C 349.410156 29.675781 342.667969 36.414062 342.667969 44.730469 C 342.667969 53.042969 349.410156 59.785156 357.722656 59.785156 C 366.039062 59.785156 372.78125 53.042969 372.78125 44.730469 C 372.78125 36.414062 366.039062 29.675781 357.722656 29.675781 Z M 357.722656 29.675781 " clip-rule="nonzero"/></clipPath><clipPath id="4a605bf653"><path d="M 266.730469 37.285156 L 367.179688 37.285156 L 367.179688 67.394531 L 266.730469 67.394531 Z M 266.730469 37.285156 " clip-rule="nonzero"/></clipPath><clipPath id="588b1cc5ed"><path d="M 281.785156 37.285156 L 352.097656 37.285156 C 356.09375 37.285156 359.921875 38.871094 362.746094 41.695312 C 365.570312 44.515625 367.15625 48.347656 367.15625 52.339844 C 367.15625 56.332031 365.570312 60.160156 362.746094 62.984375 C 359.921875 65.808594 356.09375 67.394531 352.097656 67.394531 L 281.785156 67.394531 C 277.792969 67.394531 273.964844 65.808594 271.140625 62.984375 C 268.316406 60.160156 266.730469 56.332031 266.730469 52.339844 C 266.730469 48.347656 268.316406 44.515625 271.140625 41.695312 C 273.964844 38.871094 277.792969 37.285156 281.785156 37.285156 Z M 281.785156 37.285156 " clip-rule="nonzero"/></clipPath><clipPath id="d6febb68d5"><path d="M 271 39 L 371 39 L 371 83 L 271 83 Z M 271 39 " clip-rule="nonzero"/></clipPath><clipPath id="db55f042f2"><path d="M 268.625 54.964844 L 367.5 37.28125 L 372.804688 66.917969 L 273.925781 84.605469 Z M 268.625 54.964844 " clip-rule="nonzero"/></clipPath><clipPath id="5ef6b1b50e"><path d="M 283.445312 52.316406 L 352.660156 39.933594 C 356.589844 39.230469 360.636719 40.117188 363.914062 42.402344 C 367.191406 44.683594 369.425781 48.171875 370.128906 52.105469 C 370.832031 56.035156 369.945312 60.082031 367.664062 63.359375 C 365.382812 66.636719 361.890625 68.871094 357.960938 69.574219 L 288.746094 81.957031 C 284.816406 82.660156 280.765625 81.769531 277.488281 79.488281 C 274.214844 77.207031 271.976562 73.714844 271.273438 69.785156 C 270.570312 65.855469 271.460938 61.808594 273.742188 58.53125 C 276.023438 55.253906 279.511719 53.019531 283.445312 52.316406 Z M 283.445312 52.316406 " clip-rule="nonzero"/></clipPath><clipPath id="1019b79989"><path d="M 260.773438 36.871094 L 306.601562 36.871094 L 306.601562 82.699219 L 260.773438 82.699219 Z M 260.773438 36.871094 " clip-rule="nonzero"/></clipPath><clipPath id="c4d9eea80e"><path d="M 283.6875 36.871094 C 271.035156 36.871094 260.773438 47.128906 260.773438 59.785156 C 260.773438 72.441406 271.035156 82.699219 283.6875 82.699219 C 296.34375 82.699219 306.601562 72.441406 306.601562 59.785156 C 306.601562 47.128906 296.34375 36.871094 283.6875 36.871094 Z M 283.6875 36.871094 " clip-rule="nonzero"/></clipPath><clipPath id="a2eeeff4ad"><path d="M 265 14 L 312 14 L 312 76 L 265 76 Z M 265 14 " clip-rule="nonzero"/></clipPath><clipPath id="9240282b3d"><path d="M 288.878906 8.957031 L 316.929688 66.480469 L 288.167969 80.507812 L 260.117188 22.984375 Z M 288.878906 8.957031 " clip-rule="nonzero"/></clipPath><clipPath id="aea6e104fa"><path d="M 309.917969 52.097656 C 313.792969 60.042969 310.492188 69.621094 302.550781 73.492188 C 294.609375 77.367188 285.03125 74.070312 281.15625 66.125 L 267.128906 37.363281 C 263.257812 29.421875 266.554688 19.84375 274.496094 15.96875 C 282.4375 12.097656 292.019531 15.394531 295.890625 23.335938 Z M 309.917969 52.097656 " clip-rule="nonzero"/></clipPath><clipPath id="924b4d5669"><path d="M 246.710938 24.71875 L 306.601562 24.71875 L 306.601562 84.605469 L 246.710938 84.605469 Z M 246.710938 24.71875 " clip-rule="nonzero"/></clipPath><clipPath id="e1803dae9c"><path d="M 276.65625 24.71875 C 260.121094 24.71875 246.710938 38.125 246.710938 54.660156 C 246.710938 71.199219 260.121094 84.605469 276.65625 84.605469 C 293.195312 84.605469 306.601562 71.199219 306.601562 54.660156 C 306.601562 38.125 293.195312 24.71875 276.65625 24.71875 Z M 276.65625 24.71875 " clip-rule="nonzero"/></clipPath><clipPath id="46c9d43e7e"><path d="M 351.394531 47.375 L 359.007812 47.375 L 359.007812 57.332031 L 351.394531 57.332031 Z M 351.394531 47.375 " clip-rule="nonzero"/></clipPath><clipPath id="0b1cd53972"><path d="M 355.203125 47.375 L 359.007812 57.304688 L 351.394531 57.304688 Z M 355.203125 47.375 " clip-rule="nonzero"/></clipPath><clipPath id="031e78f925"><path d="M 359.003906 52.296875 L 366.613281 52.296875 L 366.613281 62.257812 L 359.003906 62.257812 Z M 359.003906 52.296875 " clip-rule="nonzero"/></clipPath><clipPath id="b04f147899"><path d="M 362.808594 62.257812 L 359.003906 52.324219 L 366.613281 52.324219 Z M 362.808594 62.257812 " clip-rule="nonzero"/></clipPath><clipPath id="c676fa132b"><path d="M 343.78125 52.296875 L 351.394531 52.296875 L 351.394531 62.257812 L 343.78125 62.257812 Z M 343.78125 52.296875 " clip-rule="nonzero"/></clipPath><clipPath id="d6c78c099b"><path d="M 347.585938 62.257812 L 343.78125 52.324219 L 351.394531 52.324219 Z M 347.585938 62.257812 " clip-rule="nonzero"/></clipPath><clipPath id="98398de7d3"><path d="M 336.175781 47.375 L 343.785156 47.375 L 343.785156 57.332031 L 336.175781 57.332031 Z M 336.175781 47.375 " clip-rule="nonzero"/></clipPath><clipPath id="11c83ed220"><path d="M 339.980469 47.375 L 343.785156 57.304688 L 336.175781 57.304688 Z M 339.980469 47.375 " clip-rule="nonzero"/></clipPath><clipPath id="0916afc0d8"><path d="M 321.136719 47.375 L 328.75 47.375 L 328.75 57.332031 L 321.136719 57.332031 Z M 321.136719 47.375 " clip-rule="nonzero"/></clipPath><clipPath id="3eac022e90"><path d="M 324.941406 47.375 L 328.75 57.304688 L 321.136719 57.304688 Z M 324.941406 47.375 " clip-rule="nonzero"/></clipPath><clipPath id="fc44de73a7"><path d="M 305.527344 47.375 L 313.136719 47.375 L 313.136719 57.332031 L 305.527344 57.332031 Z M 305.527344 47.375 " clip-rule="nonzero"/></clipPath><clipPath id="ce7d6310bb"><path d="M 309.332031 47.375 L 313.136719 57.304688 L 305.527344 57.304688 Z M 309.332031 47.375 " clip-rule="nonzero"/></clipPath><clipPath id="c893ae1ac9"><path d="M 313.132812 52.296875 L 320.746094 52.296875 L 320.746094 62.257812 L 313.132812 62.257812 Z M 313.132812 52.296875 " clip-rule="nonzero"/></clipPath><clipPath id="ab36546515"><path d="M 316.9375 62.257812 L 313.132812 52.324219 L 320.746094 52.324219 Z M 316.9375 62.257812 " clip-rule="nonzero"/></clipPath><clipPath id="f93178560e"><path d="M 328.746094 52.296875 L 336.355469 52.296875 L 336.355469 62.257812 L 328.746094 62.257812 Z M 328.746094 52.296875 " clip-rule="nonzero"/></clipPath><clipPath id="07bd3b9043"><path d="M 332.550781 62.257812 L 328.746094 52.324219 L 336.355469 52.324219 Z M 332.550781 62.257812 " clip-rule="nonzero"/></clipPath><clipPath id="becb18c183"><path d="M 226.316406 29.675781 L 307.261719 29.675781 L 307.261719 89.5625 L 226.316406 89.5625 Z M 226.316406 29.675781 " clip-rule="nonzero"/></clipPath><clipPath id="8ff94abe7a"><path d="M 266.710938 29.675781 C 244.402344 29.675781 226.316406 43.082031 226.316406 59.621094 C 226.316406 76.15625 244.402344 89.5625 266.710938 89.5625 C 289.019531 89.5625 307.101562 76.15625 307.101562 59.621094 C 307.101562 43.082031 289.019531 29.675781 266.710938 29.675781 Z M 266.710938 29.675781 " clip-rule="nonzero"/></clipPath><clipPath id="60d79b8617"><path d="M 276.679688 24.71875 L 290.699219 24.71875 L 290.699219 38.738281 L 276.679688 38.738281 Z M 276.679688 24.71875 " clip-rule="nonzero"/></clipPath><clipPath id="1be08661bc"><path d="M 283.6875 24.71875 C 279.816406 24.71875 276.679688 27.855469 276.679688 31.726562 C 276.679688 35.597656 279.816406 38.738281 283.6875 38.738281 C 287.5625 38.738281 290.699219 35.597656 290.699219 31.726562 C 290.699219 27.855469 287.5625 24.71875 283.6875 24.71875 Z M 283.6875 24.71875 " clip-rule="nonzero"/></clipPath><clipPath id="02676a5a9a"><path d="M 70.675781 34.140625 L 283.714844 34.140625 L 283.714844 89.5625 L 70.675781 89.5625 Z M 70.675781 34.140625 " clip-rule="nonzero"/></clipPath><clipPath id="5acc9769f0"><path d="M 87.925781 34.140625 L 266.4375 34.140625 C 271.015625 34.140625 275.402344 35.957031 278.636719 39.191406 C 281.871094 42.425781 283.6875 46.8125 283.6875 51.390625 L 283.6875 72.3125 C 283.6875 76.890625 281.871094 81.277344 278.636719 84.511719 C 275.402344 87.746094 271.015625 89.5625 266.4375 89.5625 L 87.925781 89.5625 C 83.351562 89.5625 78.964844 87.746094 75.726562 84.511719 C 72.492188 81.277344 70.675781 76.890625 70.675781 72.3125 L 70.675781 51.390625 C 70.675781 46.8125 72.492188 42.425781 75.726562 39.191406 C 78.964844 35.957031 83.351562 34.140625 87.925781 34.140625 Z M 87.925781 34.140625 " clip-rule="nonzero"/></clipPath><clipPath id="1d7c483b0e"><path d="M 237 28 L 251 28 L 251 53 L 237 53 Z M 237 28 " clip-rule="nonzero"/></clipPath><clipPath id="b6518d6c3d"><path d="M 247.253906 27.304688 L 253.085938 50.519531 L 240.78125 53.609375 L 234.949219 30.398438 Z M 247.253906 27.304688 " clip-rule="nonzero"/></clipPath><clipPath id="751e8fa594"><path d="M 250.1875 38.984375 C 251.785156 45.351562 250.328125 51.203125 246.929688 52.058594 C 243.535156 52.910156 239.484375 48.441406 237.882812 42.074219 L 237.84375 41.925781 C 236.246094 35.558594 237.703125 29.703125 241.101562 28.851562 C 244.5 27.996094 248.550781 32.46875 250.148438 38.832031 Z M 250.1875 38.984375 " clip-rule="nonzero"/></clipPath><clipPath id="c5cabb5b5f"><path d="M 219.972656 29.664062 L 232.660156 29.664062 L 232.660156 53.597656 L 219.972656 53.597656 Z M 219.972656 29.664062 " clip-rule="nonzero"/></clipPath><clipPath id="45d1de08c9"><path d="M 219.972656 41.554688 C 219.972656 34.992188 222.8125 29.671875 226.316406 29.671875 C 229.820312 29.671875 232.660156 34.992188 232.660156 41.554688 L 232.660156 41.710938 C 232.660156 48.277344 229.820312 53.597656 226.316406 53.597656 C 222.8125 53.597656 219.972656 48.277344 219.972656 41.710938 Z M 219.972656 41.554688 " clip-rule="nonzero"/></clipPath><clipPath id="f349e41bae"><path d="M 203.261719 29.664062 L 215.949219 29.664062 L 215.949219 53.597656 L 203.261719 53.597656 Z M 203.261719 29.664062 " clip-rule="nonzero"/></clipPath><clipPath id="644bf975dc"><path d="M 203.261719 41.554688 C 203.261719 34.992188 206.101562 29.671875 209.605469 29.671875 C 213.109375 29.671875 215.949219 34.992188 215.949219 41.554688 L 215.949219 41.710938 C 215.949219 48.277344 213.109375 53.597656 209.605469 53.597656 C 206.101562 53.597656 203.261719 48.277344 203.261719 41.710938 Z M 203.261719 41.554688 " clip-rule="nonzero"/></clipPath><clipPath id="81a78a327f"><path d="M 186.554688 29.664062 L 199.238281 29.664062 L 199.238281 53.597656 L 186.554688 53.597656 Z M 186.554688 29.664062 " clip-rule="nonzero"/></clipPath><clipPath id="522a5c49cb"><path d="M 186.554688 41.554688 C 186.554688 34.992188 189.394531 29.671875 192.898438 29.671875 C 196.398438 29.671875 199.238281 34.992188 199.238281 41.554688 L 199.238281 41.710938 C 199.238281 48.277344 196.398438 53.597656 192.898438 53.597656 C 189.394531 53.597656 186.554688 48.277344 186.554688 41.710938 Z M 186.554688 41.554688 " clip-rule="nonzero"/></clipPath><clipPath id="e9e816878a"><path d="M 169.84375 29.664062 L 182.53125 29.664062 L 182.53125 53.597656 L 169.84375 53.597656 Z M 169.84375 29.664062 " clip-rule="nonzero"/></clipPath><clipPath id="12a411a171"><path d="M 169.84375 41.554688 C 169.84375 34.992188 172.683594 29.671875 176.1875 29.671875 C 179.691406 29.671875 182.53125 34.992188 182.53125 41.554688 L 182.53125 41.710938 C 182.53125 48.277344 179.691406 53.597656 176.1875 53.597656 C 172.683594 53.597656 169.84375 48.277344 169.84375 41.710938 Z M 169.84375 41.554688 " clip-rule="nonzero"/></clipPath><clipPath id="ddf261b007"><path d="M 153.136719 29.664062 L 165.820312 29.664062 L 165.820312 53.597656 L 153.136719 53.597656 Z M 153.136719 29.664062 " clip-rule="nonzero"/></clipPath><clipPath id="54161df642"><path d="M 153.136719 41.554688 C 153.136719 34.992188 155.976562 29.671875 159.476562 29.671875 C 162.980469 29.671875 165.820312 34.992188 165.820312 41.554688 L 165.820312 41.710938 C 165.820312 48.277344 162.980469 53.597656 159.476562 53.597656 C 155.976562 53.597656 153.136719 48.277344 153.136719 41.710938 Z M 153.136719 41.554688 " clip-rule="nonzero"/></clipPath><clipPath id="af9c474ad6"><path d="M 0 189 L 150 189 L 150 225 L 0 225 Z M 0 189 " clip-rule="nonzero"/></clipPath><clipPath id="f714701970"><path d="M -101.671875 253.835938 L 123.160156 152.90625 L 149.933594 212.554688 L -74.894531 313.484375 Z M -101.671875 253.835938 " clip-rule="nonzero"/></clipPath><clipPath id="c1d7e3108b"><path d="M -101.671875 253.835938 L 123.160156 152.90625 L 149.933594 212.554688 L -74.894531 313.484375 Z M -101.671875 253.835938 " clip-rule="nonzero"/></clipPath><clipPath id="9e2f508798"><path d="M 27.007812 62.273438 L 238.777344 62.273438 L 238.777344 183.828125 L 27.007812 183.828125 Z M 27.007812 62.273438 " clip-rule="nonzero"/></clipPath><clipPath id="559ad8403b"><path d="M 200.988281 62.273438 C 221.820312 62.273438 238.710938 89.484375 238.710938 123.050781 C 238.710938 156.617188 221.820312 183.828125 200.988281 183.828125 L 64.730469 183.828125 C 43.894531 183.828125 27.007812 156.617188 27.007812 123.050781 C 27.007812 89.484375 43.894531 62.273438 64.730469 62.273438 Z M 200.988281 62.273438 " clip-rule="nonzero"/></clipPath><clipPath id="3c17bb03b6"><path d="M 51.558594 34.140625 L 131.007812 34.140625 L 131.007812 113.589844 L 51.558594 113.589844 Z M 51.558594 34.140625 " clip-rule="nonzero"/></clipPath><clipPath id="e900a16861"><path d="M 91.28125 34.140625 C 69.34375 34.140625 51.558594 51.925781 51.558594 73.863281 C 51.558594 95.804688 69.34375 113.589844 91.28125 113.589844 C 113.222656 113.589844 131.007812 95.804688 131.007812 73.863281 C 131.007812 51.925781 113.222656 34.140625 91.28125 34.140625 Z M 91.28125 34.140625 " clip-rule="nonzero"/></clipPath><clipPath id="ff4fa90fa5"><path d="M 9 35 L 106 35 L 106 112 L 9 112 Z M 9 35 " clip-rule="nonzero"/></clipPath><clipPath id="b4ea7379a6"><path d="M -11.414062 83.082031 L 86.339844 8.890625 L 114.3125 45.75 L 16.5625 119.941406 Z M -11.414062 83.082031 " clip-rule="nonzero"/></clipPath><clipPath id="e98da591e0"><path d="M -11.414062 83.082031 L 86.339844 8.890625 L 114.3125 45.75 L 16.5625 119.941406 Z M -11.414062 83.082031 " clip-rule="nonzero"/></clipPath><clipPath id="e7a9095c97"><path d="M 8 106 L 91 106 L 91 202 L 8 202 Z M 8 106 " clip-rule="nonzero"/></clipPath><clipPath id="25f7663c98"><path d="M 63.476562 223.792969 L -17.757812 127.824219 L 19.09375 96.628906 L 100.328125 192.597656 Z M 63.476562 223.792969 " clip-rule="nonzero"/></clipPath><clipPath id="efddd60370"><path d="M 63.476562 223.792969 L -17.757812 127.824219 L 19.09375 96.628906 L 100.328125 192.597656 Z M 63.476562 223.792969 " clip-rule="nonzero"/></clipPath><clipPath id="ae2a7bb663"><path d="M 56.28125 89.5625 L 275.464844 89.5625 L 275.464844 191.03125 L 56.28125 191.03125 Z M 56.28125 89.5625 " clip-rule="nonzero"/></clipPath><clipPath id="97cd42cc4e"><path d="M 237.640625 89.5625 C 258.472656 89.5625 275.363281 112.277344 275.363281 140.296875 C 275.363281 168.316406 258.472656 191.03125 237.640625 191.03125 L 94.003906 191.03125 C 73.171875 191.03125 56.28125 168.316406 56.28125 140.296875 C 56.28125 112.277344 73.171875 89.5625 94.003906 89.5625 Z M 237.640625 89.5625 " clip-rule="nonzero"/></clipPath><clipPath id="5985274dbd"><path d="M 68 32 L 84 32 L 84 56 L 68 56 Z M 68 32 " clip-rule="nonzero"/></clipPath><clipPath id="3dd67f12a5"><path d="M 74.007812 57.726562 L 66.207031 35.101562 L 78.199219 30.964844 L 86 53.59375 Z M 74.007812 57.726562 " clip-rule="nonzero"/></clipPath><clipPath id="f504cf77c5"><path d="M 70.082031 46.34375 C 67.941406 40.136719 68.894531 34.183594 72.203125 33.039062 C 75.515625 31.898438 79.9375 36.003906 82.074219 42.210938 L 82.125 42.355469 C 84.265625 48.5625 83.316406 54.519531 80.003906 55.660156 C 76.691406 56.800781 72.273438 52.695312 70.132812 46.492188 Z M 70.082031 46.34375 " clip-rule="nonzero"/></clipPath><clipPath id="a04a273fca"><path d="M 119.421875 29.664062 L 132.105469 29.664062 L 132.105469 53.597656 L 119.421875 53.597656 Z M 119.421875 29.664062 " clip-rule="nonzero"/></clipPath><clipPath id="d83ad4e8ef"><path d="M 119.421875 41.554688 C 119.421875 34.992188 122.261719 29.671875 125.761719 29.671875 C 129.265625 29.671875 132.105469 34.992188 132.105469 41.554688 L 132.105469 41.710938 C 132.105469 48.277344 129.265625 53.597656 125.761719 53.597656 C 122.261719 53.597656 119.421875 48.277344 119.421875 41.710938 Z M 119.421875 41.554688 " clip-rule="nonzero"/></clipPath><clipPath id="6c4d25aedd"><path d="M 102.710938 29.664062 L 115.398438 29.664062 L 115.398438 53.597656 L 102.710938 53.597656 Z M 102.710938 29.664062 " clip-rule="nonzero"/></clipPath><clipPath id="e70d3b0c90"><path d="M 102.710938 41.554688 C 102.710938 34.992188 105.550781 29.671875 109.054688 29.671875 C 112.558594 29.671875 115.398438 34.992188 115.398438 41.554688 L 115.398438 41.710938 C 115.398438 48.277344 112.558594 53.597656 109.054688 53.597656 C 105.550781 53.597656 102.710938 48.277344 102.710938 41.710938 Z M 102.710938 41.554688 " clip-rule="nonzero"/></clipPath><clipPath id="86a5fcb5be"><path d="M 86 29.664062 L 98.6875 29.664062 L 98.6875 53.597656 L 86 53.597656 Z M 86 29.664062 " clip-rule="nonzero"/></clipPath><clipPath id="6c22575aba"><path d="M 86 41.554688 C 86 34.992188 88.839844 29.671875 92.34375 29.671875 C 95.847656 29.671875 98.6875 34.992188 98.6875 41.554688 L 98.6875 41.710938 C 98.6875 48.277344 95.847656 53.597656 92.34375 53.597656 C 88.839844 53.597656 86 48.277344 86 41.710938 Z M 86 41.554688 " clip-rule="nonzero"/></clipPath><clipPath id="73def63aa2"><path d="M 102.09375 45.757812 L 114.78125 45.757812 L 114.78125 69.691406 L 102.09375 69.691406 Z M 102.09375 45.757812 " clip-rule="nonzero"/></clipPath><clipPath id="0a1260fa4b"><path d="M 102.09375 57.648438 C 102.09375 51.085938 104.933594 45.765625 108.4375 45.765625 C 111.941406 45.765625 114.78125 51.085938 114.78125 57.648438 L 114.78125 57.804688 C 114.78125 64.371094 111.941406 69.691406 108.4375 69.691406 C 104.933594 69.691406 102.09375 64.371094 102.09375 57.804688 Z M 102.09375 57.648438 " clip-rule="nonzero"/></clipPath><clipPath id="aaaf0d1d43"><path d="M 55 37 L 71 37 L 71 60 L 55 60 Z M 55 37 " clip-rule="nonzero"/></clipPath><clipPath id="f5ddb2990a"><path d="M 62.605469 61.847656 L 51.820312 40.480469 L 63.144531 34.765625 L 73.929688 56.132812 Z M 62.605469 61.847656 " clip-rule="nonzero"/></clipPath><clipPath id="27da503815"><path d="M 57.179688 51.097656 C 54.21875 45.238281 54.359375 39.207031 57.484375 37.628906 C 60.613281 36.050781 65.546875 39.523438 68.503906 45.382812 L 68.574219 45.519531 C 71.53125 51.378906 71.394531 57.410156 68.265625 58.988281 C 65.140625 60.566406 60.207031 57.097656 57.25 51.238281 Z M 57.179688 51.097656 " clip-rule="nonzero"/></clipPath><clipPath id="aac3592404"><path d="M 41 44 L 58 44 L 58 66 L 41 66 Z M 41 44 " clip-rule="nonzero"/></clipPath><clipPath id="73f621d243"><path d="M 50.390625 68.65625 L 37.792969 48.304688 L 48.578125 41.625 L 61.179688 61.976562 Z M 50.390625 68.65625 " clip-rule="nonzero"/></clipPath><clipPath id="6b22ee7aae"><path d="M 44.054688 58.417969 C 40.597656 52.835938 40.210938 46.816406 43.191406 44.972656 C 46.167969 43.128906 51.386719 46.15625 54.839844 51.738281 L 54.921875 51.871094 C 58.378906 57.453125 58.765625 63.472656 55.785156 65.316406 C 52.804688 67.160156 47.589844 64.128906 44.136719 58.546875 Z M 44.054688 58.417969 " clip-rule="nonzero"/></clipPath><clipPath id="978b4529bd"><path d="M 28 54 L 47 54 L 47 75 L 28 75 Z M 28 54 " clip-rule="nonzero"/></clipPath><clipPath id="476d1532e6"><path d="M 40.328125 77.941406 L 25.363281 59.261719 L 35.261719 51.328125 L 50.226562 70.007812 Z M 40.328125 77.941406 " clip-rule="nonzero"/></clipPath><clipPath id="5f8223085b"><path d="M 32.796875 68.542969 C 28.695312 63.417969 27.582031 57.492188 30.316406 55.300781 C 33.050781 53.109375 38.59375 55.488281 42.699219 60.609375 L 42.796875 60.730469 C 46.902344 65.855469 48.011719 71.785156 45.277344 73.972656 C 42.542969 76.164062 37 73.785156 32.894531 68.664062 Z M 32.796875 68.542969 " clip-rule="nonzero"/></clipPath><clipPath id="84ef920cdb"><path d="M 137.136719 29.664062 L 149.820312 29.664062 L 149.820312 53.597656 L 137.136719 53.597656 Z M 137.136719 29.664062 " clip-rule="nonzero"/></clipPath><clipPath id="bcde387ba7"><path d="M 137.136719 41.554688 C 137.136719 34.992188 139.976562 29.671875 143.480469 29.671875 C 146.980469 29.671875 149.820312 34.992188 149.820312 41.554688 L 149.820312 41.710938 C 149.820312 48.277344 146.980469 53.597656 143.480469 53.597656 C 139.976562 53.597656 137.136719 48.277344 137.136719 41.710938 Z M 137.136719 41.554688 " clip-rule="nonzero"/></clipPath><clipPath id="3f7ce19f21"><path d="M 18 68 L 39 68 L 39 88 L 18 88 Z M 18 68 " clip-rule="nonzero"/></clipPath><clipPath id="3a06a73111"><path d="M 33.535156 90.609375 L 15.585938 74.777344 L 23.976562 65.265625 L 41.925781 81.09375 Z M 33.535156 90.609375 " clip-rule="nonzero"/></clipPath><clipPath id="02910d14da"><path d="M 24.503906 82.644531 C 19.582031 78.304688 17.46875 72.65625 19.785156 70.027344 C 22.101562 67.398438 27.972656 68.789062 32.894531 73.132812 L 33.011719 73.234375 C 37.933594 77.574219 40.046875 83.226562 37.730469 85.851562 C 35.414062 88.480469 29.542969 87.089844 24.621094 82.75 Z M 24.503906 82.644531 " clip-rule="nonzero"/></clipPath><clipPath id="b6d080e6ad"><path d="M 9 82 L 32 82 L 32 99 L 9 99 Z M 9 82 " clip-rule="nonzero"/></clipPath><clipPath id="373279a952"><path d="M 27.816406 102.160156 L 7.21875 89.972656 L 13.679688 79.054688 L 34.277344 91.246094 Z M 27.816406 102.160156 " clip-rule="nonzero"/></clipPath><clipPath id="dc96027c17"><path d="M 17.453125 96.03125 C 11.804688 92.6875 8.671875 87.53125 10.453125 84.519531 C 12.238281 81.503906 18.265625 81.769531 23.914062 85.113281 L 24.046875 85.191406 C 29.695312 88.535156 32.832031 93.6875 31.046875 96.703125 C 29.261719 99.71875 23.234375 99.453125 17.585938 96.109375 Z M 17.453125 96.03125 " clip-rule="nonzero"/></clipPath><clipPath id="9f84e195b6"><path d="M 3 100 L 28 100 L 28 115 L 3 115 Z M 3 100 " clip-rule="nonzero"/></clipPath><clipPath id="6a8bb64d73"><path d="M 25.300781 116.519531 L 2.320312 109.828125 L 5.867188 97.648438 L 28.847656 104.339844 Z M 25.300781 116.519531 " clip-rule="nonzero"/></clipPath><clipPath id="1732bb858c"><path d="M 13.742188 113.152344 C 7.4375 111.320312 3.125 107.105469 4.101562 103.742188 C 5.082031 100.378906 10.984375 99.140625 17.289062 100.972656 L 17.4375 101.015625 C 23.738281 102.851562 28.054688 107.066406 27.074219 110.429688 C 26.097656 113.792969 20.191406 115.03125 13.890625 113.199219 Z M 13.742188 113.152344 " clip-rule="nonzero"/></clipPath><clipPath id="ee72067336"><path d="M 0 137 L 144 137 L 144 225 L 0 225 Z M 0 137 " clip-rule="nonzero"/></clipPath><clipPath id="9e8482ee5e"><path d="M 131.648438 274.894531 L -48.566406 185.472656 L -20.84375 129.605469 L 159.367188 219.027344 Z M 131.648438 274.894531 " clip-rule="nonzero"/></clipPath><clipPath id="ad3b796f8e"><path d="M 131.648438 274.894531 L -48.566406 185.472656 L -20.84375 129.605469 L 159.367188 219.027344 Z M 131.648438 274.894531 " clip-rule="nonzero"/></clipPath><clipPath id="3b13bc3b32"><path d="M 0 203.101562 L 70.777344 203.101562 L 70.777344 225 L 0 225 Z M 0 203.101562 " clip-rule="nonzero"/></clipPath><clipPath id="533da40d64"><path d="M 32.953125 203.101562 C 53.789062 203.101562 70.675781 225.8125 70.675781 253.832031 C 70.675781 281.851562 53.789062 304.566406 32.953125 304.566406 L -110.683594 304.566406 C -131.515625 304.566406 -148.402344 281.851562 -148.402344 253.832031 C -148.402344 225.8125 -131.515625 203.101562 -110.683594 203.101562 Z M 32.953125 203.101562 " clip-rule="nonzero"/></clipPath><clipPath id="f41d475a66"><path d="M 2 115 L 27 115 L 27 129 L 2 129 Z M 2 115 " clip-rule="nonzero"/></clipPath><clipPath id="50650ad9d5"><path d="M 27.003906 127.84375 L 3.074219 128.390625 L 2.785156 115.707031 L 26.710938 115.160156 Z M 27.003906 127.84375 " clip-rule="nonzero"/></clipPath><clipPath id="45456f3b6e"><path d="M 14.964844 128.117188 C 8.402344 128.269531 3.015625 125.550781 2.9375 122.046875 C 2.855469 118.546875 8.113281 115.585938 14.675781 115.433594 L 14.828125 115.429688 C 21.390625 115.28125 26.777344 118 26.855469 121.5 C 26.9375 125.003906 21.683594 127.964844 15.121094 128.113281 Z M 14.964844 128.117188 " clip-rule="nonzero"/></clipPath><clipPath id="4efe16dcd8"><path d="M 85 185 L 94 185 L 94 197 L 85 197 Z M 85 185 " clip-rule="nonzero"/></clipPath><clipPath id="b278363b33"><path d="M 95 186.949219 L 92.433594 197.742188 L 84.011719 195.738281 L 86.578125 184.945312 Z M 95 186.949219 " clip-rule="nonzero"/></clipPath><clipPath id="1352f3955e"><path d="M 93.71875 192.34375 C 93.007812 195.324219 90.550781 197.289062 88.222656 196.738281 C 85.898438 196.183594 84.585938 193.320312 85.292969 190.339844 C 86.003906 187.363281 88.464844 185.394531 90.789062 185.949219 C 93.113281 186.503906 94.425781 189.367188 93.71875 192.34375 Z M 93.71875 192.34375 " clip-rule="nonzero"/></clipPath><clipPath id="cb92c492e7"><path d="M 72 182 L 83 182 L 83 193 L 72 193 Z M 72 182 " clip-rule="nonzero"/></clipPath><clipPath id="0063a77dc9"><path d="M 84.015625 185.105469 L 77.988281 194.429688 L 70.433594 189.550781 L 76.460938 180.222656 Z M 84.015625 185.105469 " clip-rule="nonzero"/></clipPath><clipPath id="497bd385e0"><path d="M 81.007812 189.761719 C 79.34375 192.335938 76.304688 193.324219 74.21875 191.976562 C 72.132812 190.628906 71.789062 187.453125 73.449219 184.878906 C 75.113281 182.308594 78.152344 181.316406 80.238281 182.664062 C 82.324219 184.011719 82.667969 187.191406 81.007812 189.761719 Z M 81.007812 189.761719 " clip-rule="nonzero"/></clipPath><clipPath id="d3d69dd3e0"><path d="M 97 188 L 107 188 L 107 200 L 97 200 Z M 97 188 " clip-rule="nonzero"/></clipPath><clipPath id="3998ed4b85"><path d="M 106.78125 188.476562 L 106.027344 199.542969 L 97.390625 198.957031 L 98.144531 187.890625 Z M 106.78125 188.476562 " clip-rule="nonzero"/></clipPath><clipPath id="540df9eafc"><path d="M 106.40625 194.007812 C 106.199219 197.0625 104.09375 199.40625 101.710938 199.246094 C 99.324219 199.082031 97.558594 196.476562 97.769531 193.421875 C 97.976562 190.367188 100.078125 188.019531 102.460938 188.183594 C 104.847656 188.34375 106.613281 190.953125 106.40625 194.007812 Z M 106.40625 194.007812 " clip-rule="nonzero"/></clipPath><clipPath id="b81263e622"><path d="M 109 190 L 119 190 L 119 202 L 109 202 Z M 109 190 " clip-rule="nonzero"/></clipPath><clipPath id="57383437d4"><path d="M 118.984375 191.234375 L 116.9375 202.136719 L 108.429688 200.539062 L 110.476562 189.636719 Z M 118.984375 191.234375 " clip-rule="nonzero"/></clipPath><clipPath id="6f350ba431"><path d="M 117.960938 196.683594 C 117.394531 199.695312 115.03125 201.777344 112.683594 201.335938 C 110.332031 200.894531 108.886719 198.097656 109.453125 195.085938 C 110.015625 192.078125 112.378906 189.996094 114.730469 190.4375 C 117.078125 190.878906 118.527344 193.675781 117.960938 196.683594 Z M 117.960938 196.683594 " clip-rule="nonzero"/></clipPath><clipPath id="aff2f14f9a"><path d="M 61 171 L 72 171 L 72 182 L 61 182 Z M 61 171 " clip-rule="nonzero"/></clipPath><clipPath id="ee1b59d883"><path d="M 73.324219 176.25 L 65.1875 183.804688 L 59.066406 177.214844 L 67.203125 169.660156 Z M 73.324219 176.25 " clip-rule="nonzero"/></clipPath><clipPath id="1fbde46248"><path d="M 69.261719 180.023438 C 67.019531 182.105469 63.828125 182.320312 62.140625 180.5 C 60.449219 178.679688 60.898438 175.515625 63.140625 173.429688 C 65.386719 171.347656 68.574219 171.132812 70.265625 172.953125 C 71.957031 174.773438 71.507812 177.9375 69.261719 180.023438 Z M 69.261719 180.023438 " clip-rule="nonzero"/></clipPath><clipPath id="dc596c5b8f"><path d="M 37 133 L 62 133 L 62 147 L 37 147 Z M 37 133 " clip-rule="nonzero"/></clipPath><clipPath id="8ad8721c2f"><path d="M 62.007812 146.363281 L 38.078125 146.910156 L 37.789062 134.226562 L 61.714844 133.679688 Z M 62.007812 146.363281 " clip-rule="nonzero"/></clipPath><clipPath id="5dbfc3e4b9"><path d="M 49.96875 146.636719 C 43.40625 146.789062 38.019531 144.070312 37.941406 140.570312 C 37.859375 137.066406 43.117188 134.105469 49.679688 133.957031 L 49.832031 133.953125 C 56.394531 133.800781 61.78125 136.519531 61.859375 140.019531 C 61.941406 143.523438 56.6875 146.484375 50.125 146.632812 Z M 49.96875 146.636719 " clip-rule="nonzero"/></clipPath><clipPath id="4635bef13f"><path d="M 41 154 L 64 154 L 64 170 L 41 170 Z M 41 154 " clip-rule="nonzero"/></clipPath><clipPath id="17593855f5"><path d="M 66.207031 162.652344 L 44.332031 172.371094 L 39.179688 160.777344 L 61.054688 151.058594 Z M 66.207031 162.652344 " clip-rule="nonzero"/></clipPath><clipPath id="daab35e74a"><path d="M 55.203125 167.542969 C 49.203125 170.207031 43.1875 169.773438 41.765625 166.570312 C 40.339844 163.371094 44.050781 158.613281 50.050781 155.949219 L 50.191406 155.886719 C 56.191406 153.21875 62.207031 153.652344 63.628906 156.855469 C 65.050781 160.058594 61.34375 164.8125 55.34375 167.476562 Z M 55.203125 167.542969 " clip-rule="nonzero"/></clipPath><clipPath id="58bf75b350"><path d="M 101 54 L 137 54 L 137 128 L 101 128 Z M 101 54 " clip-rule="nonzero"/></clipPath><clipPath id="a7ef0903d7"><path d="M 139.039062 54.773438 L 133.601562 128 L 100.496094 125.542969 L 105.9375 52.3125 Z M 139.039062 54.773438 " clip-rule="nonzero"/></clipPath><clipPath id="e3467aff85"><path d="M 139.039062 54.773438 L 133.601562 128 L 100.496094 125.542969 L 105.9375 52.3125 Z M 139.039062 54.773438 " clip-rule="nonzero"/></clipPath><clipPath id="7f2a2e378a"><path d="M 185 63 L 243 63 L 243 128 L 185 128 Z M 185 63 " clip-rule="nonzero"/></clipPath><clipPath id="48c5eaa145"><path d="M 206.109375 56.472656 L 250.808594 114.730469 L 224.472656 134.9375 L 179.773438 76.675781 Z M 206.109375 56.472656 " clip-rule="nonzero"/></clipPath><clipPath id="a81f69d549"><path d="M 206.109375 56.472656 L 250.808594 114.730469 L 224.472656 134.9375 L 179.773438 76.675781 Z M 206.109375 56.472656 " clip-rule="nonzero"/></clipPath><clipPath id="41d33d80bc"><path d="M 209 47 L 267 47 L 267 113 L 209 113 Z M 209 47 " clip-rule="nonzero"/></clipPath><clipPath id="3e4233014d"><path d="M 230.464844 41.257812 L 275.164062 99.515625 L 248.828125 119.722656 L 204.128906 61.464844 Z M 230.464844 41.257812 " clip-rule="nonzero"/></clipPath><clipPath id="bb3f0375c1"><path d="M 230.464844 41.257812 L 275.164062 99.515625 L 248.828125 119.722656 L 204.128906 61.464844 Z M 230.464844 41.257812 " clip-rule="nonzero"/></clipPath><clipPath id="0812dd500c"><path d="M 132 48 L 168 48 L 168 122 L 132 122 Z M 132 48 " clip-rule="nonzero"/></clipPath><clipPath id="14f0bcee31"><path d="M 170.3125 49.054688 L 164.871094 122.28125 L 131.769531 119.824219 L 137.207031 46.59375 Z M 170.3125 49.054688 " clip-rule="nonzero"/></clipPath><clipPath id="da55306b03"><path d="M 170.3125 49.054688 L 164.871094 122.28125 L 131.769531 119.824219 L 137.207031 46.59375 Z M 170.3125 49.054688 " clip-rule="nonzero"/></clipPath><clipPath id="f8203d1c4e"><path d="M 100.007812 111.414062 L 148.082031 111.414062 L 148.082031 129.382812 L 100.007812 129.382812 Z M 100.007812 111.414062 " clip-rule="nonzero"/></clipPath><clipPath id="500c6b360e"><path d="M 130.105469 111.414062 C 140.015625 111.414062 148.050781 115.4375 148.050781 120.398438 C 148.050781 125.359375 140.015625 129.382812 130.105469 129.382812 L 117.949219 129.382812 C 108.039062 129.382812 100.007812 125.359375 100.007812 120.398438 C 100.007812 115.4375 108.039062 111.414062 117.949219 111.414062 Z M 130.105469 111.414062 " clip-rule="nonzero"/></clipPath><clipPath id="ec0f3e1e02"><path d="M 131.007812 105.082031 L 179.082031 105.082031 L 179.082031 123.050781 L 131.007812 123.050781 Z M 131.007812 105.082031 " clip-rule="nonzero"/></clipPath><clipPath id="2497601edb"><path d="M 161.105469 105.082031 C 171.015625 105.082031 179.050781 109.105469 179.050781 114.066406 C 179.050781 119.027344 171.015625 123.050781 161.105469 123.050781 L 148.949219 123.050781 C 139.039062 123.050781 131.007812 119.027344 131.007812 114.066406 C 131.007812 109.105469 139.039062 105.082031 148.949219 105.082031 Z M 161.105469 105.082031 " clip-rule="nonzero"/></clipPath><clipPath id="49a5743da7"><path d="M 218.28125 116.523438 L 266.355469 116.523438 L 266.355469 134.492188 L 218.28125 134.492188 Z M 218.28125 116.523438 " clip-rule="nonzero"/></clipPath><clipPath id="2ab516b73d"><path d="M 248.378906 116.523438 C 258.289062 116.523438 266.324219 120.546875 266.324219 125.507812 C 266.324219 130.46875 258.289062 134.492188 248.378906 134.492188 L 236.222656 134.492188 C 226.3125 134.492188 218.28125 130.46875 218.28125 125.507812 C 218.28125 120.546875 226.3125 116.523438 236.222656 116.523438 Z M 248.378906 116.523438 " clip-rule="nonzero"/></clipPath><clipPath id="2c5034d7e5"><path d="M 242.65625 101.789062 L 290.734375 101.789062 L 290.734375 119.753906 L 242.65625 119.753906 Z M 242.65625 101.789062 " clip-rule="nonzero"/></clipPath><clipPath id="9b385af619"><path d="M 272.753906 101.789062 C 282.664062 101.789062 290.699219 105.808594 290.699219 110.769531 C 290.699219 115.734375 282.664062 119.753906 272.753906 119.753906 L 260.601562 119.753906 C 250.691406 119.753906 242.65625 115.734375 242.65625 110.769531 C 242.65625 105.808594 250.691406 101.789062 260.601562 101.789062 Z M 272.753906 101.789062 " clip-rule="nonzero"/></clipPath></defs><rect x="-37.5" width="450" fill="#ffffff" y="-22.5" height="270" fill-opacity="1"/><rect x="-37.5" width="450" fill="#fefae0" y="-22.5" height="270" fill-opacity="1"/><g clip-path="url(#76f74c9977)"><g clip-path="url(#4cef386973)"><path fill="#283618" d="M 342.667969 29.675781 L 372.78125 29.675781 L 372.78125 59.785156 L 342.667969 59.785156 Z M 342.667969 29.675781 " fill-opacity="1" fill-rule="nonzero"/></g></g><g clip-path="url(#4a605bf653)"><g clip-path="url(#588b1cc5ed)"><path fill="#283618" d="M 266.730469 37.285156 L 367.179688 37.285156 L 367.179688 67.394531 L 266.730469 67.394531 Z M 266.730469 37.285156 " fill-opacity="1" fill-rule="nonzero"/></g></g><g clip-path="url(#d6febb68d5)"><g clip-path="url(#db55f042f2)"><g clip-path="url(#5ef6b1b50e)"><path fill="#283618" d="M 268.625 54.964844 L 367.5 37.28125 L 372.804688 66.917969 L 273.925781 84.605469 Z M 268.625 54.964844 " fill-opacity="1" fill-rule="nonzero"/></g></g></g><g clip-path="url(#1019b79989)"><g clip-path="url(#c4d9eea80e)"><path fill="#283618" d="M 260.773438 36.871094 L 306.601562 36.871094 L 306.601562 82.699219 L 260.773438 82.699219 Z M 260.773438 36.871094 " fill-opacity="1" fill-rule="nonzero"/></g></g><g clip-path="url(#a2eeeff4ad)"><g clip-path="url(#9240282b3d)"><g clip-path="url(#aea6e104fa)"><path fill="#283618" d="M 288.878906 8.957031 L 316.929688 66.480469 L 288.167969 80.507812 L 260.117188 22.984375 Z M 288.878906 8.957031 " fill-opacity="1" fill-rule="nonzero"/></g></g></g><g clip-path="url(#924b4d5669)"><g clip-path="url(#e1803dae9c)"><path fill="#283618" d="M 246.710938 24.71875 L 306.601562 24.71875 L 306.601562 84.605469 L 246.710938 84.605469 Z M 246.710938 24.71875 " fill-opacity="1" fill-rule="nonzero"/></g></g><g clip-path="url(#46c9d43e7e)"><g clip-path="url(#0b1cd53972)"><path fill="#ffffff" d="M 351.394531 47.375 L 359.007812 47.375 L 359.007812 57.300781 L 351.394531 57.300781 Z M 351.394531 47.375 " fill-opacity="1" fill-rule="nonzero"/></g></g><g clip-path="url(#031e78f925)"><g clip-path="url(#b04f147899)"><path fill="#ffffff" d="M 366.613281 62.257812 L 359.003906 62.257812 L 359.003906 52.328125 L 366.613281 52.328125 Z M 366.613281 62.257812 " fill-opacity="1" fill-rule="nonzero"/></g></g><g clip-path="url(#c676fa132b)"><g clip-path="url(#d6c78c099b)"><path fill="#ffffff" d="M 351.394531 62.257812 L 343.78125 62.257812 L 343.78125 52.328125 L 351.394531 52.328125 Z M 351.394531 62.257812 " fill-opacity="1" fill-rule="nonzero"/></g></g><g clip-path="url(#98398de7d3)"><g clip-path="url(#11c83ed220)"><path fill="#ffffff" d="M 336.175781 47.375 L 343.785156 47.375 L 343.785156 57.300781 L 336.175781 57.300781 Z M 336.175781 47.375 " fill-opacity="1" fill-rule="nonzero"/></g></g><g clip-path="url(#0916afc0d8)"><g clip-path="url(#3eac022e90)"><path fill="#ffffff" d="M 321.136719 47.375 L 328.75 47.375 L 328.75 57.300781 L 321.136719 57.300781 Z M 321.136719 47.375 " fill-opacity="1" fill-rule="nonzero"/></g></g><g clip-path="url(#fc44de73a7)"><g clip-path="url(#ce7d6310bb)"><path fill="#ffffff" d="M 305.527344 47.375 L 313.136719 47.375 L 313.136719 57.300781 L 305.527344 57.300781 Z M 305.527344 47.375 " fill-opacity="1" fill-rule="nonzero"/></g></g><g clip-path="url(#c893ae1ac9)"><g clip-path="url(#ab36546515)"><path fill="#ffffff" d="M 320.746094 62.257812 L 313.132812 62.257812 L 313.132812 52.328125 L 320.746094 52.328125 Z M 320.746094 62.257812 " fill-opacity="1" fill-rule="nonzero"/></g></g><g clip-path="url(#f93178560e)"><g clip-path="url(#07bd3b9043)"><path fill="#ffffff" d="M 336.355469 62.257812 L 328.746094 62.257812 L 328.746094 52.328125 L 336.355469 52.328125 Z M 336.355469 62.257812 " fill-opacity="1" fill-rule="nonzero"/></g></g><g clip-path="url(#becb18c183)"><g clip-path="url(#8ff94abe7a)"><path fill="#283618" d="M 226.316406 29.675781 L 307.027344 29.675781 L 307.027344 89.5625 L 226.316406 89.5625 Z M 226.316406 29.675781 " fill-opacity="1" fill-rule="nonzero"/></g></g><g clip-path="url(#60d79b8617)"><g clip-path="url(#1be08661bc)"><path fill="#ffffff" d="M 276.679688 24.71875 L 290.699219 24.71875 L 290.699219 38.738281 L 276.679688 38.738281 Z M 276.679688 24.71875 " fill-opacity="1" fill-rule="nonzero"/></g></g><g clip-path="url(#02676a5a9a)"><g clip-path="url(#5acc9769f0)"><path fill="#283618" d="M 70.675781 34.140625 L 283.714844 34.140625 L 283.714844 89.5625 L 70.675781 89.5625 Z M 70.675781 34.140625 " fill-opacity="1" fill-rule="nonzero"/></g></g><g clip-path="url(#1d7c483b0e)"><g clip-path="url(#b6518d6c3d)"><g clip-path="url(#751e8fa594)"><path fill="#283618" d="M 247.253906 27.304688 L 253.085938 50.519531 L 240.78125 53.609375 L 234.949219 30.398438 Z M 247.253906 27.304688 " fill-opacity="1" fill-rule="nonzero"/></g></g></g><g clip-path="url(#c5cabb5b5f)"><g clip-path="url(#45d1de08c9)"><path fill="#283618" d="M 219.972656 53.597656 L 219.972656 29.664062 L 232.660156 29.664062 L 232.660156 53.597656 Z M 219.972656 53.597656 " fill-opacity="1" fill-rule="nonzero"/></g></g><g clip-path="url(#f349e41bae)"><g clip-path="url(#644bf975dc)"><path fill="#283618" d="M 203.261719 53.597656 L 203.261719 29.664062 L 215.949219 29.664062 L 215.949219 53.597656 Z M 203.261719 53.597656 " fill-opacity="1" fill-rule="nonzero"/></g></g><g clip-path="url(#81a78a327f)"><g clip-path="url(#522a5c49cb)"><path fill="#283618" d="M 186.554688 53.597656 L 186.554688 29.664062 L 199.238281 29.664062 L 199.238281 53.597656 Z M 186.554688 53.597656 " fill-opacity="1" fill-rule="nonzero"/></g></g><g clip-path="url(#e9e816878a)"><g clip-path="url(#12a411a171)"><path fill="#283618" d="M 169.84375 53.597656 L 169.84375 29.664062 L 182.53125 29.664062 L 182.53125 53.597656 Z M 169.84375 53.597656 " fill-opacity="1" fill-rule="nonzero"/></g></g><g clip-path="url(#ddf261b007)"><g clip-path="url(#54161df642)"><path fill="#283618" d="M 153.136719 53.597656 L 153.136719 29.664062 L 165.820312 29.664062 L 165.820312 53.597656 Z M 153.136719 53.597656 " fill-opacity="1" fill-rule="nonzero"/></g></g><g clip-path="url(#af9c474ad6)"><g clip-path="url(#f714701970)"><g clip-path="url(#c1d7e3108b)"><path fill="#283618" d="M -75.398438 312.363281 C -74.691406 306.5 -73.492188 300.738281 -71.804688 295.082031 C -70.996094 292.234375 -70.03125 289.4375 -69.019531 286.640625 L -68.648438 285.59375 L -68.234375 284.566406 L -67.398438 282.503906 L -66.976562 281.476562 L -66.53125 280.453125 L -65.644531 278.398438 C -60.671875 267.367188 -54.394531 257.132812 -46.8125 247.707031 C -31.664062 228.738281 -11.640625 213.441406 10.726562 203.429688 C 33.089844 193.417969 57.8125 188.605469 82.03125 189.878906 C 94.113281 190.476562 105.925781 192.585938 117.472656 196.195312 L 119.597656 196.898438 L 120.65625 197.246094 L 121.707031 197.613281 L 123.804688 198.355469 C 124.140625 198.484375 124.503906 198.605469 124.847656 198.730469 L 125.875 199.148438 L 127.933594 199.984375 C 128.621094 200.261719 129.304688 200.539062 130 200.835938 C 130.691406 201.132812 131.359375 201.421875 132.03125 201.730469 C 132.703125 202.039062 133.375 202.335938 134.039062 202.667969 C 139.390625 205.160156 144.492188 208.085938 149.347656 211.449219 L 148.800781 212.882812 C 138.171875 208.980469 127.265625 206.140625 116.078125 204.363281 C 104.917969 202.542969 93.683594 201.832031 82.378906 202.234375 C 79.566406 202.332031 76.753906 202.5 73.949219 202.742188 C 71.140625 202.984375 68.34375 203.277344 65.5625 203.628906 C 59.980469 204.359375 54.441406 205.363281 48.949219 206.632812 C 37.957031 209.207031 27.308594 212.808594 17.011719 217.429688 C 6.710938 222.054688 -3.054688 227.617188 -12.28125 234.121094 C -16.871094 237.375 -21.296875 240.847656 -25.570312 244.539062 C -27.695312 246.378906 -29.777344 248.273438 -31.8125 250.222656 C -33.847656 252.167969 -35.84375 254.15625 -37.804688 256.1875 C -45.609375 264.367188 -52.539062 273.226562 -58.589844 282.773438 C -64.695312 292.320312 -69.816406 302.363281 -73.960938 312.910156 Z M -75.398438 312.363281 " fill-opacity="1" fill-rule="nonzero"/></g></g></g><g clip-path="url(#9e2f508798)"><g clip-path="url(#559ad8403b)"><path fill="#283618" d="M 27.007812 62.273438 L 238.777344 62.273438 L 238.777344 183.828125 L 27.007812 183.828125 Z M 27.007812 62.273438 " fill-opacity="1" fill-rule="nonzero"/></g></g><g clip-path="url(#3c17bb03b6)"><g clip-path="url(#e900a16861)"><path fill="#283618" d="M 51.558594 34.140625 L 131.007812 34.140625 L 131.007812 113.589844 L 51.558594 113.589844 Z M 51.558594 34.140625 " fill-opacity="1" fill-rule="nonzero"/></g></g><g clip-path="url(#ff4fa90fa5)"><g clip-path="url(#b4ea7379a6)"><g clip-path="url(#e98da591e0)"><path fill="#283618" d="M 103.066406 54.9375 C 101.992188 54.792969 100.914062 54.675781 99.832031 54.582031 C 98.753906 54.492188 97.671875 54.425781 96.585938 54.386719 C 95.503906 54.347656 94.417969 54.335938 93.335938 54.351562 C 92.25 54.363281 91.167969 54.40625 90.085938 54.472656 C 89 54.539062 87.921875 54.632812 86.84375 54.753906 C 85.765625 54.875 84.691406 55.019531 83.621094 55.191406 C 82.550781 55.367188 81.484375 55.566406 80.421875 55.789062 C 79.363281 56.015625 78.308594 56.265625 77.257812 56.542969 C 76.210938 56.820312 75.167969 57.121094 74.132812 57.449219 C 73.101562 57.777344 72.074219 58.128906 71.058594 58.507812 C 70.042969 58.882812 69.035156 59.285156 68.039062 59.710938 C 67.039062 60.140625 66.054688 60.589844 65.082031 61.066406 C 64.105469 61.542969 63.140625 62.039062 62.191406 62.5625 C 61.242188 63.085938 60.304688 63.628906 59.378906 64.199219 C 58.457031 64.765625 57.546875 65.355469 56.652344 65.96875 C 55.757812 66.582031 54.878906 67.214844 54.015625 67.871094 C 53.148438 68.527344 52.300781 69.203125 51.472656 69.902344 C 50.640625 70.597656 49.828125 71.316406 49.03125 72.050781 C 48.234375 72.789062 47.457031 73.546875 46.699219 74.320312 C 45.941406 75.09375 45.203125 75.886719 44.480469 76.699219 C 43.761719 77.511719 43.0625 78.339844 42.382812 79.183594 C 41.703125 80.03125 41.046875 80.890625 40.40625 81.769531 C 39.769531 82.644531 39.15625 83.539062 38.5625 84.445312 C 37.96875 85.355469 37.398438 86.277344 36.847656 87.210938 C 36.300781 88.148438 35.773438 89.097656 35.273438 90.058594 C 34.769531 91.019531 34.292969 91.992188 33.839844 92.976562 C 33.382812 93.960938 32.953125 94.957031 32.546875 95.960938 C 32.140625 96.96875 31.761719 97.984375 31.40625 99.007812 C 31.050781 100.03125 30.71875 101.066406 30.414062 102.105469 C 30.109375 103.144531 29.828125 104.195312 29.574219 105.25 C 29.320312 106.300781 29.089844 107.363281 28.886719 108.429688 C 28.6875 109.492188 28.511719 110.5625 28.359375 111.636719 L 9.410156 108.996094 C 9.605469 107.613281 9.832031 106.234375 10.089844 104.859375 C 10.351562 103.488281 10.644531 102.125 10.972656 100.765625 C 11.300781 99.40625 11.660156 98.058594 12.054688 96.71875 C 12.445312 95.375 12.871094 94.046875 13.332031 92.726562 C 13.789062 91.40625 14.28125 90.101562 14.800781 88.804688 C 15.324219 87.507812 15.878906 86.226562 16.464844 84.957031 C 17.046875 83.6875 17.664062 82.4375 18.3125 81.199219 C 18.957031 79.960938 19.632812 78.738281 20.339844 77.53125 C 21.046875 76.328125 21.78125 75.140625 22.546875 73.96875 C 23.3125 72.800781 24.101562 71.652344 24.925781 70.519531 C 25.746094 69.390625 26.59375 68.28125 27.46875 67.191406 C 28.34375 66.101562 29.242188 65.035156 30.171875 63.992188 C 31.097656 62.945312 32.050781 61.925781 33.027344 60.925781 C 34.003906 59.925781 35.007812 58.953125 36.03125 58.003906 C 37.054688 57.054688 38.101562 56.132812 39.171875 55.234375 C 40.242188 54.335938 41.335938 53.464844 42.449219 52.621094 C 43.5625 51.773438 44.695312 50.957031 45.847656 50.167969 C 47 49.378906 48.171875 48.621094 49.359375 47.886719 C 50.550781 47.15625 51.757812 46.453125 52.980469 45.78125 C 54.207031 45.109375 55.445312 44.464844 56.703125 43.855469 C 57.957031 43.242188 59.226562 42.660156 60.511719 42.109375 C 61.796875 41.5625 63.09375 41.042969 64.402344 40.558594 C 65.710938 40.070312 67.035156 39.617188 68.363281 39.195312 C 69.695312 38.773438 71.039062 38.382812 72.390625 38.027344 C 73.738281 37.671875 75.097656 37.347656 76.464844 37.058594 C 77.832031 36.769531 79.203125 36.515625 80.585938 36.292969 C 81.964844 36.070312 83.347656 35.882812 84.734375 35.726562 C 86.125 35.570312 87.515625 35.453125 88.910156 35.363281 C 90.304688 35.277344 91.699219 35.226562 93.097656 35.207031 C 94.492188 35.191406 95.890625 35.207031 97.285156 35.257812 C 98.683594 35.304688 100.074219 35.390625 101.46875 35.507812 C 102.859375 35.628906 104.25 35.78125 105.632812 35.964844 Z M 103.066406 54.9375 " fill-opacity="1" fill-rule="nonzero"/></g></g></g><g clip-path="url(#e7a9095c97)"><g clip-path="url(#25f7663c98)"><g clip-path="url(#efddd60370)"><path fill="#283618" d="M 28.46875 108.308594 C 28.378906 109.414062 28.316406 110.523438 28.28125 111.632812 C 28.246094 112.742188 28.238281 113.851562 28.257812 114.960938 C 28.277344 116.074219 28.324219 117.179688 28.398438 118.289062 C 28.472656 119.398438 28.574219 120.5 28.699219 121.605469 C 28.828125 122.707031 28.984375 123.804688 29.164062 124.902344 C 29.347656 125.996094 29.554688 127.085938 29.789062 128.171875 C 30.023438 129.257812 30.285156 130.335938 30.574219 131.40625 C 30.859375 132.480469 31.175781 133.542969 31.515625 134.601562 C 31.855469 135.65625 32.21875 136.707031 32.609375 137.746094 C 33 138.785156 33.417969 139.8125 33.859375 140.832031 C 34.300781 141.847656 34.765625 142.855469 35.257812 143.851562 C 35.75 144.847656 36.261719 145.832031 36.800781 146.800781 C 37.339844 147.773438 37.902344 148.730469 38.488281 149.671875 C 39.074219 150.613281 39.683594 151.542969 40.3125 152.457031 C 40.945312 153.371094 41.597656 154.265625 42.273438 155.148438 C 42.945312 156.03125 43.644531 156.894531 44.359375 157.742188 C 45.078125 158.589844 45.816406 159.417969 46.574219 160.230469 C 47.332031 161.039062 48.109375 161.832031 48.90625 162.605469 C 49.699219 163.378906 50.515625 164.132812 51.347656 164.867188 C 52.183594 165.597656 53.035156 166.3125 53.902344 167.003906 C 54.769531 167.695312 55.65625 168.363281 56.554688 169.011719 C 57.457031 169.660156 58.375 170.289062 59.304688 170.890625 C 60.238281 171.496094 61.183594 172.074219 62.144531 172.632812 C 63.101562 173.191406 64.074219 173.722656 65.0625 174.234375 C 66.046875 174.742188 67.046875 175.226562 68.054688 175.6875 C 69.066406 176.148438 70.085938 176.585938 71.117188 176.996094 C 72.148438 177.40625 73.191406 177.792969 74.242188 178.152344 C 75.289062 178.511719 76.347656 178.84375 77.414062 179.152344 C 78.480469 179.460938 79.554688 179.742188 80.636719 180 C 81.714844 180.253906 82.800781 180.484375 83.894531 180.6875 C 84.984375 180.890625 86.082031 181.066406 87.179688 181.214844 C 88.28125 181.363281 89.382812 181.484375 90.488281 181.578125 L 88.820312 201.089844 C 87.398438 200.96875 85.976562 200.8125 84.558594 200.621094 C 83.140625 200.429688 81.730469 200.203125 80.324219 199.941406 C 78.917969 199.683594 77.519531 199.386719 76.128906 199.058594 C 74.738281 198.730469 73.355469 198.367188 71.980469 197.96875 C 70.605469 197.574219 69.242188 197.144531 67.890625 196.679688 C 66.539062 196.214844 65.199219 195.71875 63.867188 195.191406 C 62.539062 194.660156 61.226562 194.101562 59.925781 193.507812 C 58.625 192.914062 57.339844 192.289062 56.066406 191.632812 C 54.796875 190.976562 53.542969 190.289062 52.308594 189.570312 C 51.070312 188.855469 49.851562 188.105469 48.652344 187.328125 C 47.453125 186.550781 46.269531 185.746094 45.109375 184.910156 C 43.949219 184.078125 42.808594 183.214844 41.691406 182.324219 C 40.574219 181.433594 39.476562 180.515625 38.402344 179.570312 C 37.332031 178.625 36.28125 177.65625 35.253906 176.660156 C 34.226562 175.664062 33.226562 174.644531 32.25 173.597656 C 31.273438 172.554688 30.324219 171.484375 29.402344 170.394531 C 28.476562 169.300781 27.582031 168.1875 26.710938 167.054688 C 25.84375 165.917969 25 164.761719 24.1875 163.585938 C 23.375 162.410156 22.59375 161.214844 21.835938 160 C 21.082031 158.785156 20.359375 157.550781 19.664062 156.300781 C 18.972656 155.050781 18.308594 153.785156 17.675781 152.503906 C 17.046875 151.21875 16.445312 149.921875 15.875 148.609375 C 15.308594 147.296875 14.773438 145.972656 14.269531 144.636719 C 13.765625 143.296875 13.292969 141.945312 12.855469 140.585938 C 12.417969 139.222656 12.015625 137.851562 11.644531 136.472656 C 11.273438 135.089844 10.9375 133.703125 10.636719 132.304688 C 10.332031 130.90625 10.066406 129.503906 9.832031 128.09375 C 9.597656 126.679688 9.398438 125.265625 9.234375 123.84375 C 9.070312 122.425781 8.941406 121 8.847656 119.574219 C 8.753906 118.148438 8.691406 116.71875 8.667969 115.289062 C 8.644531 113.859375 8.652344 112.429688 8.699219 111 C 8.742188 109.574219 8.824219 108.144531 8.9375 106.71875 Z M 28.46875 108.308594 " fill-opacity="1" fill-rule="nonzero"/></g></g></g><g clip-path="url(#ae2a7bb663)"><g clip-path="url(#97cd42cc4e)"><path fill="#fefae0" d="M 56.28125 89.5625 L 275.464844 89.5625 L 275.464844 191.03125 L 56.28125 191.03125 Z M 56.28125 89.5625 " fill-opacity="1" fill-rule="nonzero"/></g></g><g clip-path="url(#5985274dbd)"><g clip-path="url(#3dd67f12a5)"><g clip-path="url(#f504cf77c5)"><path fill="#283618" d="M 74.007812 57.726562 L 66.207031 35.101562 L 78.199219 30.964844 L 86 53.59375 Z M 74.007812 57.726562 " fill-opacity="1" fill-rule="nonzero"/></g></g></g><g clip-path="url(#a04a273fca)"><g clip-path="url(#d83ad4e8ef)"><path fill="#283618" d="M 119.421875 53.597656 L 119.421875 29.664062 L 132.105469 29.664062 L 132.105469 53.597656 Z M 119.421875 53.597656 " fill-opacity="1" fill-rule="nonzero"/></g></g><g clip-path="url(#6c4d25aedd)"><g clip-path="url(#e70d3b0c90)"><path fill="#283618" d="M 102.710938 53.597656 L 102.710938 29.664062 L 115.398438 29.664062 L 115.398438 53.597656 Z M 102.710938 53.597656 " fill-opacity="1" fill-rule="nonzero"/></g></g><g clip-path="url(#86a5fcb5be)"><g clip-path="url(#6c22575aba)"><path fill="#283618" d="M 86 53.597656 L 86 29.664062 L 98.6875 29.664062 L 98.6875 53.597656 Z M 86 53.597656 " fill-opacity="1" fill-rule="nonzero"/></g></g><g clip-path="url(#73def63aa2)"><g clip-path="url(#0a1260fa4b)"><path fill="#283618" d="M 102.09375 69.691406 L 102.09375 45.757812 L 114.78125 45.757812 L 114.78125 69.691406 Z M 102.09375 69.691406 " fill-opacity="1" fill-rule="nonzero"/></g></g><g clip-path="url(#aaaf0d1d43)"><g clip-path="url(#f5ddb2990a)"><g clip-path="url(#27da503815)"><path fill="#283618" d="M 62.605469 61.847656 L 51.820312 40.480469 L 63.144531 34.765625 L 73.929688 56.132812 Z M 62.605469 61.847656 " fill-opacity="1" fill-rule="nonzero"/></g></g></g><g clip-path="url(#aac3592404)"><g clip-path="url(#73f621d243)"><g clip-path="url(#6b22ee7aae)"><path fill="#283618" d="M 50.390625 68.65625 L 37.792969 48.304688 L 48.578125 41.625 L 61.179688 61.976562 Z M 50.390625 68.65625 " fill-opacity="1" fill-rule="nonzero"/></g></g></g><g clip-path="url(#978b4529bd)"><g clip-path="url(#476d1532e6)"><g clip-path="url(#5f8223085b)"><path fill="#283618" d="M 40.328125 77.941406 L 25.363281 59.261719 L 35.261719 51.328125 L 50.226562 70.007812 Z M 40.328125 77.941406 " fill-opacity="1" fill-rule="nonzero"/></g></g></g><g clip-path="url(#84ef920cdb)"><g clip-path="url(#bcde387ba7)"><path fill="#283618" d="M 137.136719 53.597656 L 137.136719 29.664062 L 149.820312 29.664062 L 149.820312 53.597656 Z M 137.136719 53.597656 " fill-opacity="1" fill-rule="nonzero"/></g></g><g clip-path="url(#3f7ce19f21)"><g clip-path="url(#3a06a73111)"><g clip-path="url(#02910d14da)"><path fill="#283618" d="M 33.535156 90.609375 L 15.585938 74.777344 L 23.976562 65.265625 L 41.925781 81.09375 Z M 33.535156 90.609375 " fill-opacity="1" fill-rule="nonzero"/></g></g></g><g clip-path="url(#b6d080e6ad)"><g clip-path="url(#373279a952)"><g clip-path="url(#dc96027c17)"><path fill="#283618" d="M 27.816406 102.160156 L 7.21875 89.972656 L 13.679688 79.054688 L 34.277344 91.246094 Z M 27.816406 102.160156 " fill-opacity="1" fill-rule="nonzero"/></g></g></g><g clip-path="url(#9f84e195b6)"><g clip-path="url(#6a8bb64d73)"><g clip-path="url(#1732bb858c)"><path fill="#283618" d="M 25.300781 116.519531 L 2.320312 109.828125 L 5.867188 97.648438 L 28.847656 104.339844 Z M 25.300781 116.519531 " fill-opacity="1" fill-rule="nonzero"/></g></g></g><g clip-path="url(#ee72067336)"><g clip-path="url(#9e8482ee5e)"><g clip-path="url(#ad3b796f8e)"><path fill="#fefae0" d="M 143.082031 211.992188 C 143.082031 211.71875 143.023438 211.457031 142.910156 211.210938 C 142.792969 210.964844 142.632812 210.753906 142.425781 210.574219 C 142.21875 210.398438 141.984375 210.273438 141.722656 210.195312 C 141.460938 210.121094 141.195312 210.105469 140.925781 210.144531 C 119.859375 213.332031 89.972656 207.453125 60.136719 192.648438 C 30.296875 177.84375 7.539062 157.597656 -2.664062 138.894531 C -2.796875 138.65625 -2.96875 138.457031 -3.1875 138.292969 C -3.40625 138.128906 -3.648438 138.019531 -3.914062 137.960938 C -4.179688 137.902344 -4.449219 137.902344 -4.714844 137.960938 C -4.980469 138.019531 -5.222656 138.128906 -5.441406 138.292969 L -36.09375 161.242188 C -36.28125 161.382812 -36.4375 161.550781 -36.558594 161.75 C -36.683594 161.949219 -36.769531 162.164062 -36.8125 162.394531 C -36.859375 162.625 -36.859375 162.855469 -36.816406 163.085938 C -36.773438 163.316406 -36.695312 163.53125 -36.570312 163.730469 C -33.996094 167.921875 -31.1875 171.949219 -28.148438 175.816406 C -11.863281 196.59375 12.890625 215.867188 41.554688 230.09375 C 70.222656 244.316406 100.546875 252.371094 126.9375 252.769531 C 131.855469 252.851562 136.761719 252.652344 141.65625 252.167969 C 141.890625 252.144531 142.113281 252.078125 142.320312 251.972656 C 142.53125 251.867188 142.710938 251.726562 142.867188 251.550781 C 143.023438 251.375 143.144531 251.179688 143.226562 250.960938 C 143.3125 250.742188 143.351562 250.515625 143.347656 250.28125 Z M 143.082031 211.992188 " fill-opacity="1" fill-rule="nonzero"/></g></g></g><g clip-path="url(#3b13bc3b32)"><g clip-path="url(#533da40d64)"><path fill="#fefae0" d="M -148.402344 203.101562 L 70.777344 203.101562 L 70.777344 304.566406 L -148.402344 304.566406 Z M -148.402344 203.101562 " fill-opacity="1" fill-rule="nonzero"/></g></g><g clip-path="url(#f41d475a66)"><g clip-path="url(#50650ad9d5)"><g clip-path="url(#45456f3b6e)"><path fill="#283618" d="M 27.003906 127.84375 L 3.074219 128.390625 L 2.785156 115.707031 L 26.710938 115.160156 Z M 27.003906 127.84375 " fill-opacity="1" fill-rule="nonzero"/></g></g></g><g clip-path="url(#4efe16dcd8)"><g clip-path="url(#b278363b33)"><g clip-path="url(#1352f3955e)"><path fill="#283618" d="M 95 186.949219 L 92.433594 197.742188 L 84.011719 195.738281 L 86.578125 184.945312 Z M 95 186.949219 " fill-opacity="1" fill-rule="nonzero"/></g></g></g><g clip-path="url(#cb92c492e7)"><g clip-path="url(#0063a77dc9)"><g clip-path="url(#497bd385e0)"><path fill="#283618" d="M 84.015625 185.105469 L 77.988281 194.429688 L 70.433594 189.550781 L 76.460938 180.222656 Z M 84.015625 185.105469 " fill-opacity="1" fill-rule="nonzero"/></g></g></g><g clip-path="url(#d3d69dd3e0)"><g clip-path="url(#3998ed4b85)"><g clip-path="url(#540df9eafc)"><path fill="#283618" d="M 106.78125 188.476562 L 106.027344 199.542969 L 97.390625 198.957031 L 98.144531 187.890625 Z M 106.78125 188.476562 " fill-opacity="1" fill-rule="nonzero"/></g></g></g><g clip-path="url(#b81263e622)"><g clip-path="url(#57383437d4)"><g clip-path="url(#6f350ba431)"><path fill="#283618" d="M 118.984375 191.234375 L 116.9375 202.136719 L 108.429688 200.539062 L 110.476562 189.636719 Z M 118.984375 191.234375 " fill-opacity="1" fill-rule="nonzero"/></g></g></g><g clip-path="url(#aff2f14f9a)"><g clip-path="url(#ee1b59d883)"><g clip-path="url(#1fbde46248)"><path fill="#283618" d="M 73.324219 176.25 L 65.1875 183.804688 L 59.066406 177.214844 L 67.203125 169.660156 Z M 73.324219 176.25 " fill-opacity="1" fill-rule="nonzero"/></g></g></g><g clip-path="url(#dc596c5b8f)"><g clip-path="url(#8ad8721c2f)"><g clip-path="url(#5dbfc3e4b9)"><path fill="#283618" d="M 62.007812 146.363281 L 38.078125 146.910156 L 37.789062 134.226562 L 61.714844 133.679688 Z M 62.007812 146.363281 " fill-opacity="1" fill-rule="nonzero"/></g></g></g><g clip-path="url(#4635bef13f)"><g clip-path="url(#17593855f5)"><g clip-path="url(#daab35e74a)"><path fill="#283618" d="M 66.207031 162.652344 L 44.332031 172.371094 L 39.179688 160.777344 L 61.054688 151.058594 Z M 66.207031 162.652344 " fill-opacity="1" fill-rule="nonzero"/></g></g></g><g clip-path="url(#58bf75b350)"><g clip-path="url(#a7ef0903d7)"><g clip-path="url(#e3467aff85)"><path fill="#283618" d="M 105.632812 61.359375 C 109.222656 70.246094 111.675781 79.25 110.902344 89.648438 C 110.128906 100.046875 106.335938 109.128906 101.511719 116.847656 L 122.8125 127.363281 C 130.511719 117.933594 135.375 104.082031 136.308594 91.535156 C 137.242188 78.988281 134.691406 65.269531 128.253906 54.105469 Z M 105.632812 61.359375 " fill-opacity="1" fill-rule="nonzero"/></g></g></g><g clip-path="url(#7f2a2e378a)"><g clip-path="url(#48c5eaa145)"><g clip-path="url(#a81f69d549)"><path fill="#283618" d="M 185.570312 83.628906 C 194.164062 87.867188 201.988281 92.953125 208.335938 101.226562 C 214.683594 109.5 217.902344 118.804688 219.441406 127.773438 L 242.332031 121.4375 C 241.796875 109.273438 236.207031 95.699219 228.550781 85.71875 C 220.890625 75.734375 209.855469 67.199219 197.617188 63.15625 Z M 185.570312 83.628906 " fill-opacity="1" fill-rule="nonzero"/></g></g></g><g clip-path="url(#41d33d80bc)"><g clip-path="url(#3e4233014d)"><g clip-path="url(#bb3f0375c1)"><path fill="#283618" d="M 209.925781 68.414062 C 218.519531 72.652344 226.34375 77.738281 232.691406 86.011719 C 239.039062 94.285156 242.257812 103.589844 243.796875 112.558594 L 266.6875 106.222656 C 266.152344 94.058594 260.5625 80.488281 252.902344 70.503906 C 245.246094 60.519531 234.210938 51.984375 221.972656 47.941406 Z M 209.925781 68.414062 " fill-opacity="1" fill-rule="nonzero"/></g></g></g><g clip-path="url(#0812dd500c)"><g clip-path="url(#14f0bcee31)"><g clip-path="url(#da55306b03)"><path fill="#283618" d="M 136.90625 55.640625 C 140.496094 64.523438 142.945312 73.527344 142.175781 83.929688 C 141.402344 94.328125 137.609375 103.410156 132.785156 111.128906 L 154.082031 121.644531 C 161.78125 112.210938 166.648438 98.363281 167.582031 85.816406 C 168.511719 73.265625 165.964844 59.550781 159.523438 48.386719 Z M 136.90625 55.640625 " fill-opacity="1" fill-rule="nonzero"/></g></g></g><g clip-path="url(#f8203d1c4e)"><g clip-path="url(#500c6b360e)"><path fill="#283618" d="M 100.007812 111.414062 L 148.082031 111.414062 L 148.082031 129.382812 L 100.007812 129.382812 Z M 100.007812 111.414062 " fill-opacity="1" fill-rule="nonzero"/></g></g><g clip-path="url(#ec0f3e1e02)"><g clip-path="url(#2497601edb)"><path fill="#283618" d="M 131.007812 105.082031 L 179.082031 105.082031 L 179.082031 123.050781 L 131.007812 123.050781 Z M 131.007812 105.082031 " fill-opacity="1" fill-rule="nonzero"/></g></g><g clip-path="url(#49a5743da7)"><g clip-path="url(#2ab516b73d)"><path fill="#283618" d="M 218.28125 116.523438 L 266.355469 116.523438 L 266.355469 134.492188 L 218.28125 134.492188 Z M 218.28125 116.523438 " fill-opacity="1" fill-rule="nonzero"/></g></g><g clip-path="url(#2c5034d7e5)"><g clip-path="url(#9b385af619)"><path fill="#283618" d="M 242.65625 101.789062 L 290.734375 101.789062 L 290.734375 119.753906 L 242.65625 119.753906 Z M 242.65625 101.789062 " fill-opacity="1" fill-rule="nonzero"/></g></g></svg>